<svg clip-rule="evenodd" fill-rule="evenodd" stroke-linejoin="round" stroke-miterlimit="2" viewBox="0 0 5635 1361" xmlns="http://www.w3.org/2000/svg"><g fill="#000" fill-rule="nonzero"><path d="m547.434 1359.12 162.577-980.73h279.08l175.084 385.052c8.337 18.43 18.978 44.319 31.923 77.668 12.944 33.349 25.999 67.796 39.163 103.339 5.704-39.931 11.299-78.546 16.784-115.845 5.485-37.298 10.203-67.576 14.152-90.832l59.897-359.382h273.814l-162.577 980.73h-279.08l-163.236-358.065c-10.092-22.379-22.598-51.45-37.518-87.213-14.919-35.762-30.277-74.926-46.074-117.49-5.705 44.319-11.409 84.58-17.114 120.781-5.704 36.202-10.311 64.176-13.822 83.922l-59.239 358.065z"/><path d="m1620.5 610.074 38.834-231.689h831.974l-38.834 231.689h-279.08l-123.743 749.041h-273.814l123.743-749.041z"/><path d="m2388.15 1359.12 162.577-980.73h416.646c78.107 0 143.27 13.932 195.488 41.796 52.217 27.865 89.625 67.357 112.224 118.478 22.598 51.121 28.193 111.785 16.784 181.994-10.092 60.994-32.142 114.748-66.15 161.261-34.007 46.513-77.339 83.812-129.996 111.895l119.136 365.306h-279.08l-96.098-306.725h-127.034l-50.682 306.725zm360.04-518.668h121.768c41.248 0 75.913-10.97 103.997-32.91 28.083-21.941 44.977-50.902 50.682-86.884 6.143-35.982-1.097-64.943-21.721-86.883s-51.56-32.911-92.807-32.911h-122.427z"/><path d="m3265.07 1359.12 162.577-980.73h416.646c78.107 0 143.27 13.932 195.487 41.796 52.218 27.865 89.626 67.357 112.225 118.478 22.598 51.121 28.193 111.785 16.784 181.994-11.409 69.77-36.969 130.325-76.681 181.666-39.712 51.34-90.394 90.942-152.046 118.806s-131.532 41.796-209.639 41.796h-142.831l-48.708 296.194zm360.04-521.301h122.426c41.248 0 75.694-10.531 103.339-31.594 27.645-21.062 44.539-49.585 50.682-85.567s-1.207-64.504-22.05-85.567c-20.843-21.062-51.889-31.594-93.137-31.594h-122.426z"/><path d="m4552.71 1359.12h-435.733l162.577-980.73h363.331c100.925 0 186.821 20.185 257.688 60.555s122.207 97.305 154.021 170.805c31.813 73.5 39.383 160.054 22.708 259.663-16.236 99.17-46.513 185.395-90.833 258.676-44.319 73.28-102.461 130.106-174.425 170.476s-158.408 60.555-259.334 60.555zm-124.401-226.424h96.099c79.862 0 142.172-21.611 186.93-64.833 44.759-43.222 74.597-109.372 89.517-198.45 14.919-89.955 6.472-156.544-25.341-199.766-31.814-43.222-88.968-64.833-171.463-64.833h-88.2z"/></g><path d="m5134.11 1.885c22.299 70.024 93.328 168.893 170.815 213.384s232.461 76.623 331.473 75.017c-99.012 1.606-253.986 33.739-331.473 78.23s-148.516 135.944-170.815 210.17c-22.299-74.226-93.157-165.679-170.816-210.17s-232.461-76.624-331.472-78.23c99.011 1.606 253.813-30.526 331.472-75.017s148.517-143.36 170.816-213.384z" fill="#00f"/><path d="m-0 0h5634.8v1360.78h-5634.8z" fill="none"/></svg>